<mxfile host="app.diagrams.net" agent="Mozilla/5.0 (X11; Linux x86_64) AppleWebKit/537.36 (KHTML, like Gecko) Chrome/128.0.0.0 Safari/537.36" version="24.7.16">
  <diagram name="Page-1" id="S2Wm8XLxRaatdJP4ia0f">
    <mxGraphModel grid="1" page="1" gridSize="10" guides="1" tooltips="1" connect="1" arrows="1" fold="1" pageScale="1" pageWidth="827" pageHeight="1169" math="0" shadow="0">
      <root>
        <mxCell id="0" />
        <mxCell id="1" parent="0" />
        <mxCell id="apArwL_OJJsXpmcMcg7J-3" value="" style="endArrow=classic;html=1;rounded=0;entryX=0;entryY=0.5;entryDx=0;entryDy=0;exitX=0;exitY=1;exitDx=0;exitDy=0;" edge="1" parent="1" source="apArwL_OJJsXpmcMcg7J-5" target="apArwL_OJJsXpmcMcg7J-11">
          <mxGeometry width="50" height="50" relative="1" as="geometry">
            <mxPoint x="-15" y="240" as="sourcePoint" />
            <mxPoint x="65" y="240" as="targetPoint" />
          </mxGeometry>
        </mxCell>
        <mxCell id="apArwL_OJJsXpmcMcg7J-5" value="Millipascal source" style="text;html=1;align=center;verticalAlign=middle;whiteSpace=wrap;rounded=0;" vertex="1" parent="1">
          <mxGeometry x="10" y="210" width="60" height="30" as="geometry" />
        </mxCell>
        <mxCell id="apArwL_OJJsXpmcMcg7J-12" style="edgeStyle=orthogonalEdgeStyle;rounded=0;orthogonalLoop=1;jettySize=auto;html=1;exitX=1;exitY=0.5;exitDx=0;exitDy=0;entryX=0;entryY=0.5;entryDx=0;entryDy=0;" edge="1" parent="1" source="apArwL_OJJsXpmcMcg7J-11" target="apArwL_OJJsXpmcMcg7J-14">
          <mxGeometry relative="1" as="geometry">
            <mxPoint x="245" y="240" as="targetPoint" />
          </mxGeometry>
        </mxCell>
        <mxCell id="apArwL_OJJsXpmcMcg7J-11" value="resolution" style="rounded=1;whiteSpace=wrap;html=1;strokeWidth=2;fillColor=none;" vertex="1" parent="1">
          <mxGeometry x="76" y="210" width="64" height="60" as="geometry" />
        </mxCell>
        <mxCell id="apArwL_OJJsXpmcMcg7J-13" value="module" style="text;html=1;align=center;verticalAlign=middle;whiteSpace=wrap;rounded=0;" vertex="1" parent="1">
          <mxGeometry x="135" y="218" width="60" height="30" as="geometry" />
        </mxCell>
        <mxCell id="apArwL_OJJsXpmcMcg7J-14" value="typechecking" style="rounded=1;whiteSpace=wrap;html=1;strokeWidth=2;fillColor=none;" vertex="1" parent="1">
          <mxGeometry x="195" y="210" width="80" height="60" as="geometry" />
        </mxCell>
        <mxCell id="apArwL_OJJsXpmcMcg7J-15" style="edgeStyle=orthogonalEdgeStyle;rounded=0;orthogonalLoop=1;jettySize=auto;html=1;exitX=0.5;exitY=1;exitDx=0;exitDy=0;" edge="1" parent="1" source="apArwL_OJJsXpmcMcg7J-14" target="apArwL_OJJsXpmcMcg7J-14">
          <mxGeometry relative="1" as="geometry" />
        </mxCell>
        <mxCell id="apArwL_OJJsXpmcMcg7J-16" style="edgeStyle=orthogonalEdgeStyle;rounded=0;orthogonalLoop=1;jettySize=auto;html=1;entryX=0;entryY=0.5;entryDx=0;entryDy=0;exitX=1;exitY=0.5;exitDx=0;exitDy=0;" edge="1" parent="1" source="apArwL_OJJsXpmcMcg7J-14" target="apArwL_OJJsXpmcMcg7J-17">
          <mxGeometry relative="1" as="geometry">
            <mxPoint x="255" y="250" as="targetPoint" />
            <mxPoint x="325" y="240" as="sourcePoint" />
          </mxGeometry>
        </mxCell>
        <mxCell id="apArwL_OJJsXpmcMcg7J-20" style="edgeStyle=orthogonalEdgeStyle;rounded=0;orthogonalLoop=1;jettySize=auto;html=1;exitX=1;exitY=0.5;exitDx=0;exitDy=0;entryX=0;entryY=0.5;entryDx=0;entryDy=0;" edge="1" parent="1" source="apArwL_OJJsXpmcMcg7J-17">
          <mxGeometry relative="1" as="geometry">
            <mxPoint x="444" y="239.71000000000004" as="targetPoint" />
          </mxGeometry>
        </mxCell>
        <mxCell id="apArwL_OJJsXpmcMcg7J-17" value="consteval" style="rounded=1;whiteSpace=wrap;html=1;strokeWidth=2;fillColor=none;" vertex="1" parent="1">
          <mxGeometry x="330" y="209.71" width="60" height="60" as="geometry" />
        </mxCell>
        <mxCell id="apArwL_OJJsXpmcMcg7J-18" style="edgeStyle=orthogonalEdgeStyle;rounded=0;orthogonalLoop=1;jettySize=auto;html=1;exitX=0.5;exitY=1;exitDx=0;exitDy=0;" edge="1" parent="1" source="apArwL_OJJsXpmcMcg7J-17" target="apArwL_OJJsXpmcMcg7J-17">
          <mxGeometry relative="1" as="geometry" />
        </mxCell>
        <mxCell id="apArwL_OJJsXpmcMcg7J-19" value="typed&lt;div&gt;module&lt;/div&gt;" style="text;html=1;align=center;verticalAlign=middle;whiteSpace=wrap;rounded=0;" vertex="1" parent="1">
          <mxGeometry x="270" y="209.71" width="60" height="30" as="geometry" />
        </mxCell>
        <mxCell id="apArwL_OJJsXpmcMcg7J-21" value="typed&lt;div&gt;module&lt;/div&gt;" style="text;html=1;align=center;verticalAlign=middle;whiteSpace=wrap;rounded=0;" vertex="1" parent="1">
          <mxGeometry x="384" y="209.71" width="60" height="30" as="geometry" />
        </mxCell>
      </root>
    </mxGraphModel>
  </diagram>
</mxfile>
